<?xml version="1.0" standalone="no"?>
<!DOCTYPE svg PUBLIC "-//W3C//DTD SVG 20010904//EN"
 "http://www.w3.org/TR/2001/REC-SVG-20010904/DTD/svg10.dtd">
<svg version="1.0" xmlns="http://www.w3.org/2000/svg"
 width="487.000000pt" height="249.000000pt" viewBox="0 0 487.000000 249.000000"
 preserveAspectRatio="xMidYMid meet">

<g transform="translate(0.000000,249.000000) scale(0.100000,-0.100000)"
fill="#000000" stroke="none">
<path d="M2666 2030 c-167 -30 -295 -111 -379 -238 -49 -74 -81 -153 -92 -225
l-7 -47 75 0 75 0 7 56 c21 171 127 321 263 376 46 18 77 22 162 23 95 0 110
-3 155 -27 68 -36 104 -75 145 -161 52 -108 65 -99 65 47 l0 119 -45 23 c-94
48 -308 75 -424 54z"/>
<path d="M3788 2030 c-243 -44 -420 -227 -462 -477 l-5 -33 72 0 73 0 12 83
c22 153 101 271 218 326 110 52 271 54 372 5 113 -56 200 -179 238 -338 l18
-76 74 0 75 0 -7 51 c-10 74 -42 155 -94 232 -67 102 -165 173 -292 211 -65
20 -225 29 -292 16z"/>
<path d="M1632 2013 c2 -13 17 -20 53 -25 84 -12 85 -16 85 -259 l0 -209 65 0
65 0 0 194 c0 111 5 206 11 224 10 29 37 47 84 54 11 2 20 10 20 18 0 13 -30
15 -193 18 -180 2 -193 1 -190 -15z"/>
<path d="M387 2013 c-11 -10 13 -33 35 -33 22 0 60 -18 70 -34 4 -6 8 -104 8
-218 l0 -208 35 0 35 0 0 130 c0 106 3 130 14 130 8 0 60 -58 116 -130 l101
-130 84 0 c47 0 85 2 85 5 0 6 -182 241 -292 377 -43 54 -87 102 -98 108 -21
11 -183 14 -193 3z"/>
<path d="M1190 2006 c0 -9 16 -15 47 -19 35 -4 53 -12 70 -32 22 -25 23 -32
23 -231 l0 -204 35 0 35 0 0 205 c0 205 0 206 25 230 13 14 34 25 47 25 30 0
52 15 44 29 -5 7 -60 11 -167 11 -128 0 -159 -3 -159 -14z"/>
<path d="M658 1360 c2 -49 7 -90 11 -90 4 0 5 27 3 59 -2 33 -2 65 0 72 3 8
27 -15 57 -54 29 -37 57 -67 61 -67 5 0 10 38 12 85 3 80 2 85 -17 84 -11 0
-14 -3 -7 -6 13 -5 18 -123 5 -123 -5 0 -30 30 -57 65 -27 36 -54 65 -60 65
-7 0 -10 -28 -8 -90z"/>
<path d="M1118 1443 c8 -3 12 -31 12 -89 l0 -84 29 0 c73 0 114 47 72 81 -13
10 -17 20 -11 24 14 9 13 48 -2 63 -7 7 -35 12 -62 11 -28 0 -45 -3 -38 -6z
m87 -38 c0 -25 -4 -30 -27 -33 -26 -3 -28 -1 -28 33 0 34 2 36 28 33 23 -3 27
-8 27 -33z m16 -67 c10 -18 8 -24 -11 -40 -34 -28 -54 -19 -58 25 -3 35 -2 37
27 37 21 0 34 -7 42 -22z"/>
<path d="M1329 1441 c10 -6 12 -29 10 -90 -3 -58 -1 -81 8 -81 8 0 13 29 15
90 l3 90 -25 0 c-18 0 -21 -3 -11 -9z"/>
<path d="M1458 1360 c3 -66 7 -90 16 -90 10 0 12 12 8 45 l-5 45 52 0 51 0 0
-45 c0 -29 4 -45 13 -45 9 0 11 21 8 81 -2 61 0 84 10 90 10 6 7 9 -11 9 -24
0 -25 -3 -22 -40 l4 -40 -51 0 -51 0 0 34 c0 19 6 37 13 39 6 3 1 6 -13 6
l-25 1 3 -90z"/>
<path d="M1929 1441 c10 -6 12 -29 10 -90 -3 -60 -1 -81 8 -81 9 0 13 16 13
46 l0 45 48 -3 47 -3 -2 -42 c-1 -31 2 -43 12 -43 10 0 14 22 17 90 3 89 3 90
-21 90 -19 0 -21 -3 -11 -14 6 -8 10 -25 8 -38 -3 -20 -10 -23 -52 -26 l-48
-3 4 40 c3 38 2 41 -22 41 -18 0 -21 -3 -11 -9z"/>
<path d="M2278 1443 c8 -3 12 -31 12 -89 0 -60 3 -84 13 -84 9 0 12 25 12 90
0 90 0 90 -25 89 -14 0 -19 -3 -12 -6z"/>
<path d="M2428 1439 c-29 -16 -22 -56 11 -74 61 -31 74 -66 29 -81 -11 -3 -18
-8 -15 -10 2 -3 16 0 31 5 20 8 26 17 26 39 0 23 -8 33 -39 50 -43 24 -55 44
-38 61 14 14 44 14 52 1 3 -5 12 -10 18 -10 7 0 3 7 -7 15 -23 17 -44 19 -68
4z"/>
<path d="M2599 1441 c10 -6 12 -29 10 -90 -3 -60 -1 -81 8 -81 9 0 13 16 13
45 l0 45 51 0 52 0 -5 -45 c-4 -33 -2 -45 8 -45 9 0 13 24 16 90 2 75 1 90
-12 90 -12 0 -15 -9 -12 -40 l4 -40 -52 0 -52 0 4 40 c3 37 2 40 -22 40 -18 0
-21 -3 -11 -9z"/>
<path d="M2881 1375 c-45 -107 -44 -105 -33 -105 5 0 12 14 16 30 5 27 9 30
46 30 37 0 41 -3 47 -30 3 -16 12 -30 19 -30 8 0 14 2 14 4 0 6 -70 170 -74
174 -2 2 -18 -31 -35 -73z m42 18 c2 -10 8 -26 12 -35 6 -15 2 -18 -24 -18
-17 0 -31 2 -31 4 0 1 5 17 11 35 12 35 24 40 32 14z"/>
<path d="M3068 1443 c8 -3 12 -31 12 -89 0 -49 4 -84 10 -84 6 0 10 18 10 40
0 22 3 40 7 40 4 0 26 -19 50 -42 52 -51 67 -46 18 6 -19 21 -35 42 -35 47 0
5 16 27 36 49 23 25 31 40 22 40 -8 0 -29 -20 -47 -45 -18 -25 -37 -45 -43
-45 -6 0 -9 18 -6 45 3 42 2 45 -22 44 -14 0 -19 -3 -12 -6z"/>
<path d="M3430 1435 c-7 -8 -10 -26 -8 -40 3 -16 -1 -30 -13 -41 -33 -30 -22
-61 26 -78 18 -7 18 -5 -2 14 -27 24 -28 30 -10 54 12 16 14 15 36 -8 13 -14
21 -32 18 -40 -4 -10 -1 -13 9 -9 8 3 21 0 29 -7 9 -7 19 -10 23 -6 4 4 -1 12
-11 17 -9 6 -17 17 -17 24 0 8 -7 15 -15 15 -8 0 -19 9 -26 21 -9 17 -7 23 10
36 36 25 22 63 -24 63 -7 0 -18 -7 -25 -15z m55 -6 c4 -5 -1 -19 -11 -30 -17
-19 -19 -19 -30 -4 -7 9 -10 23 -7 31 6 16 39 19 48 3z"/>
<path d="M3748 1420 c-26 -27 -30 -36 -25 -67 10 -61 51 -88 107 -72 22 6 21
7 -11 8 -45 1 -73 30 -73 76 0 62 55 95 96 58 16 -14 18 -14 18 -1 0 39 -73
37 -112 -2z"/>
<path d="M3969 1421 c-19 -19 -29 -40 -29 -59 0 -34 34 -82 58 -82 16 1 16 1
0 10 -22 13 -40 72 -32 104 12 50 70 61 103 20 27 -35 27 -81 -1 -111 -12 -13
-17 -23 -10 -23 19 0 52 51 52 81 0 41 -9 58 -41 74 -42 22 -67 18 -100 -14z"/>
<path d="M927 1373 c-40 -103 -40 -103 -29 -103 5 0 12 14 16 30 5 27 9 30 42
30 31 0 37 -4 47 -30 6 -16 17 -30 24 -30 14 0 17 13 6 24 -4 4 -20 37 -34 74
-15 36 -31 68 -36 69 -5 2 -21 -27 -36 -64z m53 -15 c0 -13 -8 -18 -25 -18
-29 0 -28 -2 -13 40 10 31 12 32 25 15 7 -11 13 -27 13 -37z"/>
<path d="M1752 1415 c-16 -35 -15 -43 2 -19 14 18 15 18 25 -9 16 -41 14 -47
-14 -47 -17 0 -25 6 -26 18 -1 18 -37 -53 -38 -75 -2 -26 18 -12 21 15 3 23 8
28 38 30 37 4 63 -18 53 -44 -3 -9 2 -14 15 -14 19 0 18 5 -16 85 -19 47 -38
85 -42 85 -4 0 -12 -11 -18 -25z"/>
<path d="M3506 1355 c4 -8 7 -15 9 -15 2 0 5 7 9 15 3 9 0 15 -9 15 -9 0 -12
-6 -9 -15z"/>
<path d="M2402 1298 c3 -7 13 -15 24 -17 16 -3 17 -1 5 13 -16 19 -34 21 -29
4z"/>
<path d="M4190 1290 c0 -5 7 -10 15 -10 8 0 15 5 15 10 0 6 -7 10 -15 10 -8 0
-15 -4 -15 -10z"/>
<path d="M500 1079 c0 -66 -4 -129 -10 -139 -11 -21 -60 -40 -101 -40 -19 0
-29 -5 -29 -15 0 -13 25 -15 166 -15 121 0 165 3 162 12 -2 6 -24 17 -49 24
-61 18 -69 39 -69 179 l0 115 -35 0 -35 0 0 -121z"/>
<path d="M1060 1194 c0 -12 252 -325 270 -334 10 -6 30 -10 44 -10 l26 0 0
175 0 175 -34 0 c-34 0 -35 -1 -38 -47 -2 -28 -8 -48 -15 -48 -6 0 -28 21 -48
48 l-36 47 -84 0 c-47 0 -85 -3 -85 -6z"/>
<path d="M1770 1081 c0 -135 -9 -157 -70 -170 -21 -4 -36 -14 -38 -24 -3 -16
13 -17 187 -17 155 0 191 3 191 14 0 9 -17 16 -49 20 -77 10 -85 26 -90 172
l-3 124 -64 0 -64 0 0 -119z"/>
<path d="M2240 1174 c31 -81 136 -198 224 -249 155 -90 388 -98 546 -19 74 37
143 104 134 129 -9 22 -19 19 -82 -20 -101 -62 -162 -78 -282 -73 -84 3 -115
9 -154 28 -63 31 -153 115 -191 179 l-30 51 -87 0 -88 0 10 -26z"/>
<path d="M3392 1139 c102 -190 312 -300 543 -285 158 9 283 64 382 167 39 41
113 153 113 171 0 4 -29 8 -64 8 l-65 0 -25 -55 c-35 -77 -106 -149 -185 -188
-62 -30 -72 -32 -176 -32 -98 0 -116 3 -167 27 -77 36 -150 106 -190 184 l-33
64 -83 0 -83 0 33 -61z"/>
<path d="M1111 671 c-9 -16 -9 -21 0 -19 7 2 16 -12 21 -29 5 -18 13 -33 19
-33 11 0 6 20 -16 73 -12 30 -13 30 -24 8z"/>
<path d="M1225 640 c0 -27 3 -50 8 -50 4 0 7 20 7 44 0 38 3 45 23 49 17 3 16
5 -8 6 -30 1 -30 0 -30 -49z"/>
<path d="M1383 641 c11 -28 24 -48 29 -45 4 3 1 15 -7 27 -8 12 -15 32 -15 44
0 13 -6 23 -14 23 -11 0 -10 -10 7 -49z"/>
<path d="M1440 679 c0 -5 5 -7 10 -4 6 3 10 8 10 11 0 2 -4 4 -10 4 -5 0 -10
-5 -10 -11z"/>
<path d="M1548 683 c7 -3 16 -2 19 1 4 3 -2 6 -13 5 -11 0 -14 -3 -6 -6z"/>
<path d="M1830 683 c0 -21 32 -93 41 -93 5 0 3 16 -5 35 -20 48 -35 72 -36 58z"/>
<path d="M1947 683 c18 -4 22 -12 25 -51 l3 -47 5 53 5 52 -30 -1 c-23 -1 -25
-3 -8 -6z"/>
<path d="M2078 640 c5 -65 17 -65 17 0 0 27 -4 50 -10 50 -6 0 -9 -21 -7 -50z"/>
<path d="M2748 683 c7 -3 16 -2 19 1 4 3 -2 6 -13 5 -11 0 -14 -3 -6 -6z"/>
<path d="M2868 640 c5 -65 17 -65 17 0 0 28 -4 50 -10 50 -6 0 -9 -21 -7 -50z"/>
<path d="M2999 638 c5 -54 7 -51 13 15 2 21 0 37 -7 37 -6 0 -8 -20 -6 -52z"/>
<path d="M3218 640 c5 -65 17 -65 17 0 0 28 -4 50 -10 50 -6 0 -9 -21 -7 -50z"/>
<path d="M3308 683 c19 -4 22 -11 22 -49 0 -60 17 -56 22 6 l3 50 -35 -1 c-23
-1 -28 -3 -12 -6z"/>
<path d="M3478 683 c7 -3 16 -2 19 1 4 3 -2 6 -13 5 -11 0 -14 -3 -6 -6z"/>
<path d="M3599 638 c3 -29 7 -43 9 -30 2 12 6 22 10 22 3 0 17 -10 31 -22 15
-13 20 -15 12 -5 -11 13 -11 23 -3 41 13 29 -1 46 -37 46 -25 0 -26 -2 -22
-52z m51 22 c0 -13 -7 -20 -20 -20 -13 0 -20 7 -20 20 0 13 7 20 20 20 13 0
20 -7 20 -20z"/>
<path d="M3737 683 c-11 -10 -8 -43 3 -43 6 0 19 -9 30 -20 16 -16 20 -17 20
-5 0 9 -11 21 -25 27 -29 13 -33 34 -7 41 14 4 14 5 1 6 -9 0 -19 -2 -22 -6z"/>
<path d="M1299 637 c3 -31 6 -37 11 -22 7 20 2 52 -9 59 -3 3 -5 -14 -2 -37z"/>
<path d="M1510 666 c-13 -17 -10 -58 5 -63 6 -2 10 15 10 37 0 22 -1 40 -1 40
-1 0 -7 -7 -14 -14z"/>
<path d="M1584 642 c1 -31 4 -38 14 -30 16 13 15 30 -1 52 -11 16 -13 13 -13
-22z"/>
<path d="M1667 673 c-10 -9 -9 -73 1 -73 4 0 7 18 7 40 0 22 0 40 -1 40 0 0
-4 -3 -7 -7z"/>
<path d="M2201 668 c0 -10 10 -25 24 -34 14 -9 25 -23 25 -32 0 -12 3 -13 12
-4 13 13 -3 38 -32 47 -10 3 -21 14 -23 23 -4 16 -5 16 -6 0z"/>
<path d="M2591 670 c-1 -19 57 -72 65 -59 3 5 -8 17 -25 27 -17 9 -32 24 -35
32 -3 13 -4 13 -5 0z"/>
<path d="M2710 660 c-8 -14 -8 -26 0 -40 6 -11 12 -20 13 -20 1 0 2 18 2 40 1
46 0 47 -15 20z"/>
<path d="M2785 671 c4 -8 8 -28 7 -45 -1 -22 2 -26 8 -16 15 23 12 46 -7 61
-14 12 -16 12 -8 0z"/>
<path d="M3082 668 c-14 -14 -15 -37 -3 -57 6 -9 10 0 13 28 2 22 3 41 3 41
-1 0 -6 -5 -13 -12z"/>
<path d="M3440 660 c-8 -14 -8 -26 0 -40 6 -11 12 -20 13 -20 1 0 2 18 2 40 1
46 0 47 -15 20z"/>
<path d="M3518 664 c6 -11 9 -32 6 -45 -5 -19 -3 -21 5 -9 16 22 13 46 -6 61
-15 13 -15 12 -5 -7z"/>
<path d="M2400 653 c0 -7 9 -22 20 -33 26 -26 26 -13 0 20 -11 14 -20 19 -20
13z"/>
<path d="M2382 610 c0 -14 2 -19 5 -12 2 6 2 18 0 25 -3 6 -5 1 -5 -13z"/>
<path d="M930 480 c0 -27 4 -50 8 -50 5 0 8 22 8 50 -1 27 -4 50 -8 50 -5 0
-8 -22 -8 -50z"/>
<path d="M1055 480 c0 -27 5 -50 10 -50 6 0 9 21 7 50 -5 65 -17 65 -17 0z"/>
<path d="M1330 492 c0 -40 14 -62 40 -61 9 0 5 4 -9 10 -20 8 -23 15 -19 49 2
22 0 40 -4 40 -5 0 -8 -17 -8 -38z"/>
<path d="M1403 495 c0 -22 2 -30 4 -17 2 12 2 30 0 40 -3 9 -5 -1 -4 -23z"/>
<path d="M1504 518 c2 -7 10 -30 17 -50 7 -21 18 -38 25 -38 9 0 7 11 -7 40
-10 21 -19 44 -19 50 0 5 -5 10 -11 10 -6 0 -8 -6 -5 -12z"/>
<path d="M1623 512 c9 -10 22 -33 28 -51 6 -17 14 -30 16 -27 10 10 -30 96
-45 96 -13 0 -13 -2 1 -18z"/>
<path d="M1705 480 c0 -27 5 -50 10 -50 6 0 10 23 10 50 0 28 -5 50 -10 50 -6
0 -10 -22 -10 -50z"/>
<path d="M1790 480 c0 -45 2 -50 23 -49 12 0 16 3 10 6 -8 3 -13 23 -13 49 0
24 -4 44 -10 44 -5 0 -10 -22 -10 -50z"/>
<path d="M1840 510 c0 -19 3 -21 12 -12 9 9 9 15 0 24 -9 9 -12 7 -12 -12z"/>
<path d="M1928 480 c-3 -45 -1 -50 17 -50 14 0 16 3 7 8 -7 5 -11 24 -9 50 2
23 0 42 -4 42 -4 0 -9 -23 -11 -50z"/>
<path d="M2058 480 c-3 -45 -1 -50 17 -50 15 0 17 2 6 9 -9 6 -12 22 -9 50 2
22 0 41 -3 41 -4 0 -9 -23 -11 -50z"/>
<path d="M2218 525 c-9 -9 26 -95 39 -95 8 0 5 15 -9 48 -24 55 -23 54 -30 47z"/>
<path d="M2599 481 c-3 -31 0 -51 6 -51 6 0 10 19 8 47 -4 63 -10 65 -14 4z"/>
<path d="M2650 510 c0 -19 3 -21 12 -12 9 9 9 15 0 24 -9 9 -12 7 -12 -12z"/>
<path d="M2720 480 c0 -33 4 -50 13 -50 8 0 11 15 9 50 -5 65 -22 65 -22 0z"/>
<path d="M2990 499 c0 -39 16 -69 38 -69 16 1 16 1 0 11 -12 7 -18 22 -18 49
0 22 -4 40 -10 40 -5 0 -10 -14 -10 -31z"/>
<path d="M3073 495 c0 -22 2 -30 4 -17 2 12 2 30 0 40 -3 9 -5 -1 -4 -23z"/>
<path d="M3174 510 c4 -14 9 -32 11 -40 2 -8 4 -17 5 -20 1 -3 2 -8 1 -12 0
-5 6 -8 14 -8 12 0 11 8 -6 47 -23 54 -35 70 -25 33z"/>
<path d="M3307 479 c14 -28 27 -49 29 -46 7 7 -34 97 -44 97 -5 0 2 -23 15
-51z"/>
<path d="M3365 520 c-3 -5 -1 -10 5 -10 8 0 11 -14 8 -40 -2 -23 1 -40 7 -40
6 0 9 20 7 50 -4 47 -13 62 -27 40z"/>
<path d="M3629 525 c-10 -9 24 -95 38 -95 7 0 5 12 -7 38 -9 20 -19 43 -21 50
-3 7 -7 11 -10 7z"/>
<path d="M3730 480 c0 -33 4 -50 13 -50 8 0 11 15 9 50 -5 65 -22 65 -22 0z"/>
<path d="M3904 510 c4 -14 9 -32 11 -40 2 -8 4 -17 5 -20 1 -3 2 -8 1 -12 0
-5 5 -8 13 -8 12 0 11 9 -6 48 -24 54 -34 68 -24 32z"/>
<path d="M986 505 c-3 -8 -1 -15 4 -15 6 0 10 7 10 15 0 8 -2 15 -4 15 -2 0
-6 -7 -10 -15z"/>
<path d="M1180 500 c-8 -14 -8 -26 0 -40 6 -11 12 -20 13 -20 1 0 2 18 2 40 0
22 -1 40 -2 40 -1 0 -7 -9 -13 -20z"/>
<path d="M2845 500 c-8 -24 2 -60 16 -60 6 0 7 5 3 11 -4 7 -7 25 -6 40 1 34
-4 37 -13 9z"/>
<path d="M3458 514 c-12 -11 -10 -62 3 -69 14 -10 15 -5 9 38 -3 22 -8 35 -12
31z"/>
<path d="M3791 504 c0 -11 3 -14 6 -6 3 7 2 16 -1 19 -3 4 -6 -2 -5 -13z"/>
<path d="M2400 495 c0 -14 48 -65 62 -65 5 0 1 8 -11 18 -11 9 -27 26 -36 37
-8 11 -15 15 -15 10z"/>
<path d="M1250 460 c0 -11 2 -20 4 -20 2 0 6 9 9 20 3 11 1 20 -4 20 -5 0 -9
-9 -9 -20z"/>
<path d="M1850 460 c0 -11 5 -20 10 -20 6 0 10 9 10 20 0 11 -4 20 -10 20 -5
0 -10 -9 -10 -20z"/>
<path d="M2917 460 c-3 -11 -1 -20 4 -20 5 0 9 9 9 20 0 11 -2 20 -4 20 -2 0
-6 -9 -9 -20z"/>
<path d="M3780 455 c13 -14 27 -25 32 -25 4 0 -2 11 -14 25 -12 14 -26 25 -32
25 -5 0 1 -11 14 -25z"/>
<path d="M2380 456 c0 -8 4 -17 9 -20 5 -4 7 3 4 14 -6 23 -13 26 -13 6z"/>
<path d="M1115 440 c-3 -5 -1 -10 4 -10 6 0 11 5 11 10 0 6 -2 10 -4 10 -3 0
-8 -4 -11 -10z"/>
</g>
</svg>
